<svg display="none" xmlns="http://www.w3.org/2000/svg">
    <symbol id="heart" viewBox="0 0 16 15">
        <path d="M1.89453 8.73852L7.18848 13.6838C7.64551 14.1086 8.35449 14.1086 8.81152 13.6838L14.1055 8.74145C14.9961 7.91235 15.5 6.57349 15.5 5.35767V5.18774C15.5 2.87622 13.6279 0.998291 11.3135 0.998291C10.2031 0.998291 9.13672 1.43774 8.35156 2.22583L8 2.57739L7.64844 2.22583C6.01367 0.588135 3.3623 0.588135 1.72754 2.22583C0.939453 3.01099 0.5 4.07739 0.5 5.18774V5.35767C0.5 6.57349 1.00391 7.91235 1.89453 8.73852Z" fill="white"/>
    </symbol>
    <symbol id="quotes" viewBox="0 0 80 80">
        <g opacity="0.1">
            <path d="M79.9808 24.5133C79.9808 24.5046 79.9818 24.496 79.9818 24.4873C79.9818 13.9696 71.4558 5.4436 60.9381 5.4436C50.4204 5.4436 41.8945 13.9695 41.8945 24.4873C41.8945 35.0051 50.4214 43.531 60.9382 43.531C63.0998 43.531 65.1689 43.1542 67.1049 42.4903C62.8204 67.0693 43.6534 82.9202 61.421 69.8745C81.1228 55.4084 80.0029 25.0684 79.9808 24.5133Z" fill="#E9138D"/>
            <path d="M19.0437 43.5309C21.2053 43.5309 23.2744 43.154 25.2114 42.4902C20.9257 67.0691 1.75875 82.92 19.5265 69.8744C39.2283 55.4084 38.1085 25.0684 38.0863 24.5133C38.0863 24.5046 38.0873 24.496 38.0873 24.4873C38.0873 13.9696 29.5614 5.4436 19.0437 5.4436C8.52588 5.4436 0 13.9695 0 24.4873C0 35.0051 8.52682 43.5309 19.0437 43.5309Z" fill="#E9138D"/>
        </g>
    </symbol>
    <symbol id="twitter" viewBox="0 0 29 24">
        <path d="M0.508517 11.5198L7.17576 13.8784L9.77483 21.8119C9.88783 22.348 10.5659 22.4552 11.0179 22.1335L14.747 19.2389C15.086 18.9173 15.651 18.9173 16.103 19.2389L22.7703 23.8489C23.2223 24.1705 23.9003 23.9561 24.0133 23.42L28.9855 0.90608C29.0985 0.370033 28.5334 -0.166009 27.9684 0.0484099L0.508517 10.1261C-0.169506 10.3405 -0.169506 11.3054 0.508517 11.5198ZM9.43583 12.6991L22.5442 5.08725C22.7702 4.98004 22.9963 5.30167 22.7703 5.40888L12.0349 14.9505C11.6959 15.2721 11.3569 15.701 11.3569 16.237L11.0179 18.81C11.0179 19.1317 10.4529 19.2389 10.3398 18.81L8.98379 14.0928C8.64478 13.5568 8.87082 12.9135 9.43583 12.6991Z" fill="#36A1D4"/>
    </symbol>
    <symbol id="star" viewBox="0 0 15 15">
        <path d="M6.63304 1.00812C7.01752 0.339296 7.98248 0.339296 8.36696 1.00812L10.0049 3.85741C10.1468 4.10425 10.3872 4.27889 10.6658 4.33757L13.8818 5.01486C14.6367 5.17385 14.9349 6.09158 14.4176 6.66392L12.2139 9.10217C12.023 9.3134 11.9312 9.59598 11.9615 9.87908L12.3111 13.147C12.3932 13.914 11.6125 14.4812 10.9083 14.1661L7.90844 12.8238C7.64856 12.7075 7.35144 12.7075 7.09156 12.8238L4.09166 14.1661C3.38748 14.4812 2.60682 13.914 2.68889 13.147L3.03854 9.87908C3.06883 9.59598 2.97701 9.3134 2.78611 9.10217L0.582425 6.66392C0.0651439 6.09158 0.363331 5.17385 1.11823 5.01486L4.33422 4.33757C4.61282 4.27889 4.8532 4.10425 4.9951 3.85741L6.63304 1.00812Z" fill="#5CC728"/>
    </symbol>
    <symbol id="quote" viewBox="0 0 474 319">
        <path d="M14.4225 36.129C14.3883 36.2165 14.3446 36.3004 14.3104 36.388C-27.1881 142.747 25.2769 262.562 131.496 304.006C237.715 345.45 357.459 292.828 398.958 186.467C440.457 80.1061 387.983 -39.7103 281.772 -81.1511C259.942 -89.6684 237.559 -94.011 215.388 -94.9264C355.636 -326.597 611.747 -411.363 380.837 -349.451C124.79 -280.796 16.3899 30.429 14.4225 36.129Z" fill="white"/>
    </symbol>
    <symbol id="arrow" viewBox="0 0 13 8">
        <path d="M0.650482 4.66668H12.35C12.74 4.66668 13 4.40002 13 4.00002C13 3.60002 12.74 3.33335 12.35 3.33335H0.650482C0.260497 3.33335 0.000507563 3.60002 0.000507563 4.00002C0.000507563 4.40002 0.260497 4.66668 0.650482 4.66668Z" />
        <path d="M3.89985 8C4.09484 8 4.22484 7.93333 4.35483 7.8C4.61482 7.53333 4.61482 7.13333 4.35483 6.86667L1.55994 4L4.35483 1.13333C4.61482 0.866666 4.61482 0.466667 4.35483 0.2C4.09484 -0.0666667 3.70486 -0.0666667 3.44487 0.2L0.194992 3.53333C-0.0649975 3.8 -0.0649975 4.2 0.194992 4.46667L3.44487 7.8C3.57486 7.93333 3.70486 8 3.89985 8Z" />
   </symbol>
</svg>