<svg width="204" height="210" viewBox="0 0 204 210" fill="none" xmlns="http://www.w3.org/2000/svg">
<path d="M121.643 174.634C123.416 174.239 127.032 173.78 132.338 173.31L121.643 174.634ZM121.643 174.634C121.758 174.656 121.875 174.678 121.991 174.699C123.226 174.911 126.625 175.011 130.319 174.976C133.989 174.941 137.681 174.777 139.434 174.516L139.44 174.516C150.468 172.918 161.836 168.065 172.968 160.158C178.464 156.241 184.811 150.95 188.961 146.831C188.961 146.831 188.962 146.831 188.962 146.83L190.018 147.895M121.643 174.634L1.55448 104.564C1.8359 113.198 2.66018 118.949 4.92997 128.09C6.58225 134.766 7.40879 137.428 9.30745 142.244L9.3076 142.245C16.6416 160.833 30.7502 178.215 47.5604 189.447L47.5608 189.447C51.7377 192.236 54.8247 193.982 59.6199 196.351L59.6243 196.353C93.5662 212.979 133.774 212.546 162.748 195.003C166.075 192.994 171.47 189.089 174.337 186.613L174.34 186.61C184.749 177.574 193.926 165.595 200.845 152.084L200.846 152.082L199.511 151.399C200.39 149.688 200.75 148.987 200.897 148.243C201 147.727 201 147.191 201 146.282V144.038L200.066 143.181C199.208 142.4 198.955 142.324 197.642 142.324C195.724 142.324 195.345 142.602 190.018 147.895M190.018 147.895C185.802 152.079 179.39 157.423 173.836 161.38L190.018 147.895ZM96.3001 5.55516C94.6047 5.77599 90.9815 6.399 88.2491 6.94965L88.2485 6.94977C59.7959 12.6714 38.6551 27.6537 26.9536 50.1563C22.1986 59.3054 19.4474 68.6743 18.3296 79.5377L18.3292 79.5419C17.8634 83.9473 18.1371 94.7555 18.7998 99.1203C20.9615 113.111 26.1234 125.681 34.0176 136.207L34.0197 136.21C35.3926 138.049 38.12 141.038 40.9676 143.912C43.8195 146.791 46.6699 149.433 48.2734 150.619C57.1937 157.15 70.3394 162.755 79.57 164.028C79.5713 164.028 79.5727 164.028 79.5741 164.028L81.1396 164.235L84.5253 162.189C91.1474 158.181 95.922 156.082 101.334 154.875L101.338 154.874C105.821 153.885 109.609 153.576 114.965 153.756L114.968 153.756C119.321 153.911 121.913 154.198 130.158 155.436L130.159 155.436C134.651 156.114 137.644 156.411 140.166 156.336C142.648 156.263 144.725 155.827 147.368 154.964L147.371 154.963C150.015 154.104 152.235 153.634 153.969 153.69C155.741 153.747 157.374 154.395 158.081 156.119C158.297 156.64 158.383 157.273 158.419 157.833C158.458 158.428 158.447 159.09 158.399 159.745C158.307 161.006 158.057 162.459 157.61 163.454C155.771 167.571 152.203 169.793 146.092 171.377C142.981 172.193 139.565 172.679 132.338 173.31L96.3001 5.55516ZM96.3001 5.55516C97.3848 5.41663 98.2387 5.30315 98.8791 5.20729C99.4851 5.11658 99.9974 5.02841 100.333 4.92825C100.422 4.90154 100.552 4.85869 100.688 4.79218C100.754 4.76009 101.136 4.58287 101.385 4.15536C101.542 3.88426 101.647 3.50864 101.564 3.08931C101.487 2.70161 101.283 2.44135 101.142 2.30046C100.896 2.05327 100.622 1.94856 100.546 1.91927L100.545 1.91881C100.333 1.83797 100.103 1.79269 99.9488 1.76509C99.7675 1.73264 99.5564 1.70226 99.33 1.67278L99.3221 1.67174C98.5047 1.56975 95.9666 1.51509 93.549 1.5027C91.129 1.4903 88.55 1.51898 87.6214 1.6178C71.3965 3.27371 58.5262 7.20802 46.9892 14.1505L46.9876 14.1515C36.5283 20.4636 27.0291 29.4358 20.0914 39.6212C7.68719 57.765 0.812401 81.8999 1.55447 104.564L96.3001 5.55516Z" fill="#E9138D" stroke="#F5F5F5" stroke-width="3"/>
</svg>
