<svg width="1014" height="554" viewBox="0 0 1014 554" fill="none" xmlns="http://www.w3.org/2000/svg">
                      <path class="map_oblast" id="pavlodar__oblast" d="M744.229 49.7979L745.838 50.0253L746.333 52.1789L745.565 53.3156L745.64 55.1462L743.598 56.7974L743.388 58.0896L741.123 59.4416L740.022 58.0776L735.654 57.7785L735.765 59.2262L737.362 61.3081L738.549 64.7181L743.709 69.5639L763.111 84.7473L771.303 92.6082L784.097 112.829L795.827 134.569L801.297 143.291L805.863 152.935L804.056 153.138L803.413 156.788L799.725 157.697L800.369 159.731L797.263 162.674L796.595 161.897L791.781 162.579L791.893 164.804L793.13 164.601L792.982 167.867L791.732 167.448L786.807 170.475L783.763 171.397L783.219 170.188L781.746 170.822L781.437 172.162L778.838 173.503L778.282 173.072L776.228 174.998L779.111 179.03L779.766 182.739L781.598 183.278L784.666 186.389L791.249 190.385L790.383 198.533L792.66 199.155L793.353 203.893L791.707 205.544L787.574 212.807L784.258 214.279L780.36 213.345L770.028 209.182L768.605 206.765L767.009 207.674L764.237 205.76L766.155 203.211L764.732 198.318L760.773 195.865L755.749 195.673L751.492 191.318L746.852 192.479L744.378 194.812L742.88 200.579L743.029 204.156L742.126 205.688L739.428 204.133L736.718 204.42L734.825 205.473L734.268 205.066L733.155 207.961L732.016 208.224L728.898 206.454L720.447 208.703L719.383 207.602L718.232 208.033L717.044 209.672L709.991 209.445L708.828 210.952L703.854 214.458L701.441 215.152L700.983 214.159L699.436 214.231L698.607 211.491L700.141 210.498L700.104 209.72L704.93 208.32L704.571 207.65L705.388 207.315L704.992 205.867L702.22 204.803L701.564 202.996L702.406 202.517L700.55 199.43L699.164 199.371L695.798 195.901L694.115 199.981L692.519 196.02L693.905 194.979L692.581 193.376L688.646 192.634L688.324 191.653L686.382 193.233L679.366 194.405L675.827 190.636L677.609 189.009L676.569 187.454L677.225 186.137L678.512 185.85L678.376 182.225L679.972 176.302L678.92 174.735L678.821 172.031L670.531 169.123L673.13 166.156L673.488 163.5L678.846 160.114L681.296 160.784L684.117 158.642L681.766 157.338L678.933 157.087L677.708 154.347L673.303 156.441L673.426 149.393L677.559 145.959L679.032 145.684L678.524 144.643L677.968 120.761L676.706 120.582L676.631 119.912L676.495 118.404L672.003 118.081L670.778 114.947L671.273 113.523L672.387 115.006L674.144 115.258L675.171 117.387L676.359 116.897L676.025 113.212L677.559 112.613L677.324 110.591L678.549 109.957L677.2 106.428L674.825 107.229L673.723 106.894L672.276 110.675L669.021 110.723L668.415 107.648L670.123 105.71L669.331 104.094L666.67 105.901L666.089 105.315L667.524 104.178L669.813 99.9785L669.653 98.6025L672.202 96.4608L671.075 94.7618L669.826 95.5754L669.442 94.6781L668.069 95.1686L667.982 96.0062L664.542 98.9136L663.948 95.4558L664.505 91.7826L666.534 92.7398L667.45 91.8304L664.22 86.0993L667.339 83.144L667.747 81.3971L668.984 81.6962L669.591 79.1597L671.273 79.3511L673.402 80.6433L675.072 78.2144L679.18 79.1118L678.933 81.8159L681.036 82.0073L681.482 79.9852L683.214 80.3442L684.167 84.4481L687.099 85.513L689.042 80.8826L688.003 80.2963L688.72 76.8385L692.791 77.4846L693.868 73.9789L695.922 73.8592L696.887 71.4902L700.958 71.7534L701.812 72.8901L712.305 65.6274L712.985 64.0002L710.944 61.1765L714.136 59.5852L716.104 60.2313L730.865 53.5788L730.346 52.2627L731.026 50.3244L736.347 51.5568L738.809 50.6714L741.061 50.7192L743.066 47.8955L747.768 46.3401L747.83 47.5485L744.229 49.7979Z" fill="#FFE7B6" stroke="#C39230" stroke-width="1.16612"></path>
                      <path class="map_oblast" id="sko__oblast" d="M561.209 9.381L562.125 10.9364L566.319 9.68013L569.104 10.6971L573.397 10.6253L578.05 12.7431L579.968 16.2967L582.603 16.9308L584.979 19.0965L586.6 19.1443L588.246 17.5889L590.881 16.4881L592.676 13.1619L596.45 14.0712L598.219 12.8269L601.065 12.456L601.869 15.2199L605.73 21.5851L605.866 26.7899L605.26 29.0273L606.497 30.9895L606.782 33.6457L608.662 36.278L611.051 36.8762L612.622 38.312L612.647 39.9153L610.147 41.1955L610.036 44.6773L610.952 48.8052L610.246 51.6289L605.742 50.9469L605.928 52.8254L607.858 53.8543L607.041 56.2354L608.403 57.4917L609.269 59.8846L610.432 60.0402L612.795 57.384L613.872 57.1686L617.411 58.2454L617.732 60.1239L619.415 59.8128L621.11 60.3632L623.301 58.9514L622.793 56.8336L623.796 54.5962L629.945 55.6251L631.715 57.5515L631.64 58.3053L633.509 59.1667L634.053 57.1088L631.393 55.338L632.445 52.9929L630.304 50.3008L632.692 50.0256L635.699 51.7605L636.008 54.297L637.122 54.979L636.788 56.9532L641.205 58.9155L641.28 60.0402L639.807 59.7291L638.248 60.2795L638.1 60.9256L639.461 62.8998L638.446 66.2619L640.921 67.9729L642.69 64.8261L646.724 66.4055L645.351 62.5887L641.886 62.5767L642.455 60.1L643.816 59.1308L652.936 60.5427L652.861 62.3015L654.421 62.5408L655.064 64.5748L660.335 66.2619L663.033 66.1662L663.231 64.8141L666.052 66.4055L665.681 64.18L668.551 62.7562L668.601 61.476L671.41 62.2776L669.987 69.8394L664.555 69.0497L663.75 70.4974L664.344 71.7538L661.758 72.4716L661.3 76.6713L659.618 76.9345L660.187 78.4062L659.32 81.1701L663.008 82.7734L662.501 84.9031L664.221 86.0996L667.45 91.8308L666.534 92.7401L664.505 91.7829L663.948 95.4561L664.542 98.914L667.982 96.0065L668.069 95.169L669.442 94.6784L669.826 95.5758L671.076 94.7622L672.202 96.4612L669.653 98.6029L669.813 99.9788L667.524 104.178L666.089 105.315L666.671 105.901L669.331 104.095L670.123 105.71L668.415 107.648L669.022 110.723L672.276 110.675L673.724 106.895L674.825 107.23L677.201 106.428L678.549 109.958L677.324 110.592L677.559 112.614L676.025 113.212L676.359 116.897L675.171 117.388L674.144 115.258L672.387 115.007L671.274 113.523L670.779 114.947L672.004 118.082L676.495 118.405L676.631 119.912L667.326 119.242L665.606 116.048L663.812 116.131L663.515 114.6L660.249 114.672L655.646 112.41L652.564 113.679L651.896 106.799L650.882 105.686L650.362 101.618L649.545 101.69L648.766 102.767L646.167 102.791L643.928 103.867L642.901 102.934L638.26 103.927L637.134 106.775L631.442 107.194L624.427 106.344L622.942 103.568L622.917 102.252L624.451 101.582L623.684 99.5361L625.429 95.4083L620.442 90.1677L620.591 88.696L618.141 88.6362L617.336 90.2036L615.839 90.407L613.699 92.1897L611.57 92.1658L611.31 91.4718L607.425 90.8018L607.561 87.3559L597.402 87.6311L596.821 90.8736L594.643 91.1847L595.088 94.0084L592.75 94.3075L592.391 92.4649L589.817 88.8037L588.605 89.366L583.903 89.4857L584.62 88.8755L584.521 87.7268L585.536 87.6431L585.264 86.6261L586.303 86.0517L586.093 83.8981L584.373 84.5801L581.391 83.8502L580.846 84.6279L580.03 84.2331L580.611 82.9648L580.339 78.9805L579.015 78.5378L578.78 76.6952L573.558 76.6115L572.655 77.5447L571.479 77.6165L570.91 78.7293L569.574 78.4541L569.128 80.4043L568.114 80.5001L568.522 82.3426L569.858 82.6178L569.079 84.3647L567.421 83.91L566.926 80.7394L565.924 80.4881L565.639 79.4831L564.129 79.1959L564.055 77.5328L561.692 77.3533L561.766 79.3514L558.376 79.5907L558.264 78.4182L555.901 78.2507L555.69 79.2198L553.834 79.0882L555.072 81.6487L554.527 82.2709L550.988 82.1751L551.063 84.1493L552.238 84.0776L551.496 85.5014L550.865 84.7954L549.64 85.6928L549.59 86.6739L547.883 87.0448L547.153 88.1336L548.885 90.5625L548.996 91.8786L550.32 92.3094L551.075 93.8289L553.76 94.0323L553.451 96.7842L555.121 96.9158L555.542 98.2439L555.455 99.8712L554.602 100.134L556.012 102.025L552.312 105.327L553.451 109.144L552.127 108.881L554.168 111.13L549.565 112.901L549.157 114.325L546.435 115.425L544.703 119.649L542.055 119.302L541.028 119.876L540.087 121.898L536.585 121.827L537.117 124.435L538.59 125.009L538.862 126.146L535.855 129.317L534.903 128.611L534.172 129.843L534.791 130.681L533.393 132.021L530.201 129.412L526.773 128.072L525.362 126.373L520.017 126.517L520.289 134.521L515.204 132.774L513.669 133.624L511.009 133.301L508.571 132.033H500.862L500.689 128.347L496.111 129.029L492.522 130.573L490.481 126.433L486.608 126.206L486.905 113.966L489.466 113.32L489.305 108.929L489.813 108.964L489.615 105.375L488.427 105.303L487.561 101.498L488.625 100.254L491.161 100.422L492.733 99.2131L496.259 99.931L496.866 97.3466L493.24 95.157L492.993 84.7954L488.934 84.3767L487.882 81.3376L490.914 78.0712L490.864 71.7777L487.783 72.4238L485.271 64.6227L494.416 60.5786L493.104 57.2165L491.421 57.0609L486.88 54.309L491.495 52.7177L488.761 45.4431L489.454 44.4859L487.709 39.2333L493.611 37.0437L501.11 35.261L502.991 35.596L504.488 33.9688L510.514 33.6218L511.491 32.6167L516.082 31.7553L516.886 29.9007L522.615 31.0493L524.657 30.4631L527.664 29.2546L528.394 26.8616L530.176 25.4618L533.913 26.8258L538.194 26.2275L538.615 23.6192L540.26 21.7407L538.231 19.4075L537.625 16.9548L540.347 16.536L541.597 17.3376L542.673 16.5838L547.252 16.3565L548.18 16.883L548.897 14.3703L550.258 13.1978L550.753 10.733L551.743 9.97925L557.237 12.8508L557.349 10.6852L556.668 9.94335L555.468 9.99121L555.356 8.30417L556.161 7L558.71 7.51449L561.209 9.381Z" fill="#FFE7B6" stroke="#C39230" stroke-width="1.16612"></path>
                      <path class="map_oblast" id="zko__oblast" d="M122.573 153.366L125.765 153.186L126.706 153.844L131.63 153.031L132.311 154.024L133.833 154.383L134.006 155.854L133.672 157.637L131.036 158.02L131.841 160.09L135.528 160.748L137.693 159.695L138.819 157.829L139.302 158.834L140.292 158.822L140.737 159.552L140.069 160.832L140.812 161.263L144.313 159.24L143.385 156.716L145.811 153.27L148.038 153.414L149.894 154.431L151.824 154.275L153.099 153.162L153.408 151.918L155.512 151.99L157.108 150.171L157.937 150.638L158.432 154.251L161.34 158.343L161.575 159.767L162.54 160.401L162.453 161.418L163.703 161.035L163.666 161.681L164.433 161.741L164.186 161.203L164.891 161.334L165.188 160.389L165.881 161.61L165.708 160.868L167.291 160.652L167.168 159.839L167.737 160.138L167.935 159.145L168.888 160.162L170.793 159.982L170.212 161.023L171.598 160.174L172.216 161.586L172.81 160.652L173.491 160.963L175.136 160.054L177.19 160.413L176.807 159.145L177.92 158.75L177.97 159.623L179.616 159.791L180.012 160.581L182.338 159.576L185.196 162.339L187.127 162.746L188.475 164.218L188.413 164.912L187.72 165.008L188.376 165.809L187.844 167.281L189.502 170.224L191.247 171.086L192.67 170.715L193.66 171.528L194.761 171.134L198.053 172.593L198.671 173.61L200.614 174.52L200.651 176.649L201.146 176.147L201.827 177.116L201.233 177.846L201.604 178.719L204.388 182.823L207.89 183.29L209.56 184.163L207.407 192.383L209.449 195.434L210.822 195.015L211.193 195.53L208.162 199.024L208.57 200.065L206.009 202.697L207.815 205.126L207.457 210.725L210.29 212.723L210.6 214.542L209.61 217.713L207.296 221.649L208.706 223.312H206.046L203.868 226.627L204.425 227.62L202.062 228.972L197.038 228.673L196.605 230.407L194.254 230.396L192.398 232.011L191.42 234.428L189.923 233.71L190.764 235.576L189.181 240.805L189.403 244.119L183.959 249.097L184.59 250.52L180.865 251.657L172.513 251.645L171.028 250.951L169.605 254.182L167.465 253.284L167.836 261.827L164.94 261.947L163.258 268.791L163.802 270.514L162.107 271.507L159.521 271.567L154.237 268.671L153.185 268.803L152.332 270.262L144.623 268.563L144.808 265.692L145.637 265.129L144.994 263.861L134.823 262.162L131.964 263.43L126.99 263.766L125.641 267.822L123.427 269.138L122.437 268.659L120.197 270.729L118.687 270.765L105.472 279.344L100.597 284.178L96.5508 284.082L95.2392 285.123L87.753 284.728L87.9386 288.317L76.1712 283.807L69.5018 282L36.0556 277.86L33.2343 278.004L29.5965 276.831L27.3939 273.852L24.5356 273.505L17 270.179L23.8798 252.806L27.7033 250.508L30.1285 246.416L30.4626 244.801L29.7202 243.246L23.9788 238.855L24.8697 230.874L25.8225 229.043L26.9732 219.986L33.0859 217.653L37.1939 211.599L35.4616 207.806L37.0455 206.238L36.4639 205.604L36.8722 202.996L38.9881 202.709L39.0129 201.333L41.4258 198.485L42.4404 198.246L44.1727 199.131L47.0682 201.285L47.6498 202.709L48.8005 203.02L51.9063 207.1L52.9705 209.613L55.5195 211.694L56.3114 215.2L58.4149 218.251L58.4397 219.555L60.6917 219.723L62.6838 221.637L63.4015 221.924L63.6119 220.812L70.8505 217.629L74.278 214.147L73.6594 211.898L71.3331 211L71.9147 208.488L70.0215 204.516L68.4748 195.35L68.8212 194.238L66.6063 191.474L68.4005 190.947L70.0215 192.395L73.0035 193.233L75.7381 191.103L79.4503 186.544L87.0849 183.792L87.1096 182.404L84.9813 178.671L86.3053 176.53L86.1321 175.022L87.3076 173.814L89.3121 174.603L91.4775 174.005L94.8803 174.364L99.6442 169.949L110.051 166.025L109.234 164.409L110.162 163.488L109.617 162.579L112.278 162.351L112.352 161.035H113.503L113.231 157.374L114.852 154.79L118.428 155.316L117.203 157.434L119.875 156.668L120.259 154.084L118.935 153.114L119.059 150.219L121.929 151.164L122.573 153.366Z" fill="#FFE7B6" stroke="#C39230" stroke-width="1.16612"></path>
                      <path class="map_oblast" id="turkestan__oblast" d="M515.971 354.854L561.457 355.548L565.812 362.428L571.257 377.384L574.226 389.816L575.6 391.706L579.609 415.696L578.706 416.282L578.273 419.046L576.602 421.57L576.206 425.267L573.249 433.224L570.007 437.711L572.531 438.572L571.863 439.577L572.902 442.688L574.746 442.174L574.474 443.334L576.144 443.083L578.693 444.878L579.436 443.107L579.98 443.155L580.45 445.033L582.616 445.225L583.21 446.062L584.064 445.739L584.657 446.457L584.224 447.857L585.449 449.006L586.34 448.431L586.959 448.886L586.093 450.37L587.627 451.291L587.008 451.889L587.825 453.002L587.578 457.142L588.048 457.704L587.454 459.212L589.978 460.719L591.748 460.624L592.02 461.676L593.443 462.191L593.579 463.22L594.358 463.423L595.348 465.158L596.66 465.398L598.293 468.161L600.211 467.671V469.609L601.251 469.657L602.612 471.571L602.389 473.928L603.923 474.084L601.511 476.106L600.471 475.616L599.679 476.333L597.625 478.75L596.425 482.124L594.792 481.574L594.482 479.995L591.228 478.092L590.758 479.576L589.112 481.083L589.31 482.914L587.132 483.991L585.202 486.994L582.851 488.274L582.306 489.507L581.131 488.813L580.141 490.966L578.619 491.565L577.357 490.883L572.271 492.773L569.722 495.848L567.47 496.961L567.087 497.607L567.73 498.947L562.397 498.983L560.083 501.161L559.489 502.596L558.153 502.524L556.037 507.107L554.057 508.459L550.543 514.023L548.848 514.98L548.576 514.166L549.504 513.556L548.056 513.317L547.796 512.551L546.571 513.293L543.849 512.838L543.861 513.484L545.742 513.604L546.2 514.298L545.816 519.754L549.801 525.389L547.561 526.251L546.311 526.167L545.891 526.729L543.354 526.012L543.639 525.437L542.649 524.648L541.671 524.899L539.543 523.14L537.575 522.47L535.707 520.448L531.438 518.402L530.696 517.397L531.079 516.248L533.195 516.176L533.146 513.556L533.913 512.814L533.195 511.079L535.212 510.074L533.777 509.321L530.993 510.373L527.021 506.808L517.716 506.88L499.885 505.312L498.079 485.379L485.544 483.907L486.187 470.614L489.998 471.344L499.712 461.605L503.09 463.615L509.858 457.01L515.872 452.643L522.294 450.346L532.626 445.033L532.725 443.98L531.017 444.423L530.089 442.269L530.51 440.57L529.112 440.63L529.372 439.195L528.06 439.912L528.444 441.923L527.417 442.533L526.699 439.458L529.137 438.776L529.434 435.091L531.723 432.817L531.71 427.768L534.086 429.766L535.113 429.288L535.385 425.842L534.173 423.377L536.87 421.534L537.798 422.252L539.493 420.625L532.886 416.066L530.126 412.824L530.065 411.735L527.305 410.24L525.845 410.694L523.284 408.277L524.051 405.609L523.902 382.756L520.079 381.177L515.513 377.516L518.013 366.197L520.166 362.715L519.436 360.454L515.637 357.618L515.971 354.854Z" fill="#FFE7B6" stroke="#C39230" stroke-width="1.16612"></path>
                      <path class="map_oblast" id="shymkent__oblast" d="M560 467.73V468.635L560.3 471.048L561.8 470.444L562.7 473.762L561.2 475.27L563.9 475.873L564.8 478.587L566.6 480.095L566.9 481H568.4L569 480.397L570.2 480.698L571.1 480.397L572.6 480.698V479.19H574.4L575 477.079H576.5L576.8 475.27H578.9L578.3 476.175L578.9 477.381L579.5 476.778L581 477.381L582.2 475.873L581 474.365L581.6 473.46H583.4L583.7 472.556H587L583.4 469.841L581.6 469.54L581 468.635L579.5 466.825L577.4 465.619V463.81H573.5L569.6 462H566.3V463.81L565.7 464.413L565.4 465.619H563.9L563.3 467.73H560Z" fill="#FFE7B6" stroke="#C39230" stroke-linejoin="round"></path>
                      <path class="map_oblast" id="zhambyl__oblast" d="M681.829 354.914L679.898 358.994L677.609 362.727L678.649 374.931L679.96 378.27L672.697 377.755L673.13 383.869L679.874 384.037L680.072 388.033L681.482 390.546L689.203 395.774L691.505 399.615L690.404 403.539L691.183 404.724L695.774 408.971L701.144 409.534L703.854 411.628L705.351 411.831L706.712 413.614L709.212 415.265L709.323 419.261L707.715 421.834L708.271 424.143L707.702 425.638L701.528 430.891L701.54 432.949L705.599 434.325L707.776 433.954L707.418 435.067L711.018 434.636L711.885 436.048L708.692 439.793L708.42 442.497L709.336 443.023L709.001 444.399L709.93 444.794L710.499 447.068L717.354 449.604L716.71 450.872L715.324 451.279L715.597 451.794L717.923 451.542L719.259 452.356L720.509 451.83L720.942 452.93L719.915 455.945L718.604 457.19L716.141 456.436L711.674 456.4L709.138 455.323L706.255 455.79L701.528 452.691L699.61 452.165L699.288 451.327L697.506 450.597L695.18 450.956L692.111 446.924L689.513 445.751L689.055 444.95L685.615 444.28L684.464 443.239L681.47 443.251L681.198 444.926L678.649 445.775L676.298 444.699L674.776 447.702L672.078 447.343L666.795 450.059L666.869 451.064L665.396 453.72L665.483 457.633L663.565 462.562L663.924 466.211L665.731 468.461L665.186 469.382L661.697 468.82L660.831 468.126L660.546 466.343L655.955 465.422L651.253 465.434L648.927 464.405L647.257 462.167L643.953 460.827L641.367 460.719L636.157 458.386L632.272 459.104L626.11 456.065L620.443 458.207L617.807 456.807L614.751 457.19L614.169 457.824L612.028 457.716L610.841 460.468L609.566 461.126L609.343 463.1L606.361 463.435L605.607 464.082L607.599 466.75L606.794 467.671L605.248 466.69L604.852 467.013L602.612 471.572L601.251 469.657L600.212 469.609V467.671L598.294 468.162L596.66 465.398L595.349 465.158L594.359 463.424L593.579 463.22L593.443 462.191L592.02 461.677L591.748 460.624L589.978 460.719L587.454 459.212L588.048 457.704L587.578 457.142L587.825 453.002L587.009 451.889L587.627 451.291L586.093 450.37L586.959 448.886L586.341 448.432L585.45 449.006L584.225 447.857L584.658 446.457L584.064 445.739L583.21 446.062L582.616 445.225L580.451 445.034L579.981 443.155L579.436 443.107L578.694 444.878L576.145 443.083L574.474 443.334L574.746 442.174L572.903 442.688L571.863 439.578L572.532 438.572L570.007 437.711L573.249 433.224L576.207 425.268L576.602 421.57L578.273 419.046L578.706 416.282L579.609 415.696L575.6 391.706L574.227 389.816L571.257 377.384L565.813 362.428L561.457 355.548L619.057 355.297L642.084 354.471L681.829 354.914Z" fill="#FFE7B6" stroke="#C39230" stroke-width="1.16612"></path>
                      <path class="map_oblast" id="kyzylorda__oblast" d="M325.066 378.209L314.501 371L307 368L308 365H309L310.5 358.5L312 356L317.5 354L325.282 344.143L334.325 332.48L341.129 326.372L343.5 324L343.792 323.981L344.014 323.782L351.389 323.195L352.082 315.825L362.154 316.627L370.419 295.221L385.033 291.955L389.141 297.949L391.121 301.599L394.115 301.156L400.747 309.316L399.708 311.637L406.625 312.69L407.677 314.15L409.496 313.588L402.876 318.601L412.812 316.806L419.296 321.795L422.501 321.556L429.628 325.409L431.954 324.021L433.006 325.05L445.07 329.62L447.545 329.68L459.634 335.974L464.645 336.393L469.026 341.178L473.468 343.56L504.873 351.803L515.563 351.624L515.613 357.618L519.412 360.454L520.142 362.715L518.001 366.197L515.489 377.516L520.055 381.177L523.879 382.756L524.027 405.609L523.272 408.265L525.834 410.694L527.294 410.24L530.053 411.735L530.115 412.812L532.874 416.055L539.47 420.613L537.774 422.24L536.846 421.511L534.149 423.353L535.361 425.83L535.077 429.276L534.05 429.754L531.674 427.756L531.686 432.805L529.397 435.067L529.088 438.764L526.65 439.434L527.368 442.509L528.395 441.899L528.011 439.901L529.335 439.171L529.076 440.618L530.474 440.559L530.053 442.258L530.981 444.411L532.689 443.969L532.59 445.021L522.258 450.334L515.836 452.631L509.822 457.01L503.054 463.615L499.676 461.605L489.962 471.356L487.871 470.866L487.685 451.985L481.152 454.952L476.92 441.169L468.345 433.463L465.376 427.122L464.039 426.093L461.54 426.368L449.624 431.693L422.439 429.359L389.97 435.33L388.695 434.504L368.761 411.412L367.611 407.871L356.35 400.01L356.671 399.775L326.819 379.405L326.827 379.442L325.066 378.209Z" fill="#FFE7B6" stroke="#C39230"></path>
                      <path class="map_oblast" id="akmola__oblast" d="M486.608 126.206L490.481 126.433L492.523 130.573L496.111 129.029L500.689 128.347L500.863 132.033H508.571L511.009 133.301L513.669 133.624L515.204 132.774L520.289 134.521L520.017 126.517L525.363 126.373L526.773 128.072L530.201 129.412L533.393 132.021L534.791 130.681L534.173 129.843L534.903 128.611L535.856 129.317L538.862 126.146L538.59 125.009L537.118 124.435L536.586 121.827L540.087 121.898L541.028 119.876L542.055 119.302L544.703 119.649L546.435 115.425L549.157 114.325L549.566 112.901L554.169 111.13L552.127 108.881L553.451 109.144L552.313 105.327L556.012 102.025L554.602 100.134L555.456 99.871L555.542 98.2438L555.121 96.9157L553.451 96.7841L553.76 94.0322L551.075 93.8288L550.32 92.3092L548.996 91.8785L548.885 90.5624L547.153 88.1335L547.883 87.0447L549.59 86.6738L549.64 85.6927L550.865 84.7953L551.496 85.5012L552.238 84.0774L551.063 84.1492L550.989 82.175L554.527 82.2707L555.072 81.6485L553.835 79.0881L555.691 79.2197L555.901 78.2505L558.264 78.418L558.376 79.5906L561.766 79.3513L561.692 77.3531L564.055 77.5326L564.13 79.1957L565.639 79.4829L565.924 80.4879L566.926 80.7392L567.421 83.9099L569.079 84.3646L569.859 82.6177L568.522 82.3425L568.114 80.4999L569.128 80.4042L569.574 78.4539L570.91 78.7291L571.479 77.6164L572.655 77.5446L573.558 76.6113L578.78 76.6951L579.015 78.5377L580.339 78.9804L580.611 82.9647L580.03 84.233L580.846 84.6278L581.391 83.8501L584.373 84.5799L586.093 83.8979L586.303 86.0516L585.264 86.6259L585.536 87.6429L584.521 87.7267L584.62 88.8753L583.903 89.4855L588.605 89.3659L589.817 88.8035L592.391 92.4648L592.75 94.3074L595.089 94.0083L594.643 91.1845L596.821 90.8735L597.402 87.631L607.561 87.3558L607.425 90.8017L611.311 91.4717L611.57 92.1657L613.699 92.1896L615.839 90.4068L617.337 90.2034L618.141 88.636L620.591 88.6958L620.442 90.1675L625.429 95.4081L623.684 99.536L624.451 101.582L622.917 102.252L622.942 103.568L624.427 106.344L631.443 107.194L637.135 106.775L638.261 103.927L642.901 102.934L643.928 103.867L646.167 102.79L648.766 102.767L649.545 101.69L650.362 101.618L650.882 105.686L651.896 106.799L652.565 113.679L655.646 112.41L660.249 114.672L663.515 114.6L663.812 116.131L665.606 116.048L667.326 119.242L676.632 119.912L676.706 120.582L677.968 120.762L678.525 144.644L679.032 145.685L677.56 145.96L673.427 149.394L673.303 156.441L677.708 154.347L678.933 157.087L681.767 157.338L684.118 158.642L681.296 160.784L678.846 160.114L673.489 163.5L673.13 166.156L670.531 169.124L666.411 167.939L664.852 170.26L664.159 168.274L663.503 168.502L663.887 169.184L661.919 169.722L661.263 168.681L660.1 169.16L659.704 171.014L660.756 171.469L662.241 174.663L661.993 175.417L662.86 176.004L664.146 173.335L668.514 174.867L664.938 178.169L658.553 180.167L659.407 182.165L656.004 182.979L655.027 184.582L651.142 182.991L649.731 185.48L648.778 185.683L649.236 186.987L647.615 188.818L644.138 189.021L643.99 190.254L643.111 189.835L641.886 190.936L642.567 191.797L640.822 193.293L643.433 195.004L641.441 196.009L638.681 194.286L637.728 195.722L635.947 196.296L636.479 199.766L634.87 200.196L635.204 201.321L632.197 199.108L627.149 199.622L626.555 200.795L625.058 200.316L627.26 197.313L626.827 195.566L627.557 194.561L626.604 193.365L628.25 191.223L625.528 188.89L623.796 189.009L623.474 187.729L621.841 188.327L621.494 187.203L620.38 187.394L620.43 188.327L616.829 189.811L616.149 193.305L614.429 193.281L613.649 194.752L611.496 194.525L609.615 196.033L610.123 197.157L606.943 199.311L603.28 200.173L602.971 207.83L601.238 204.899L596.054 207.148L597.551 210.821L596.784 212.281L594.123 212.628L588.728 215.643L587.244 214.901L587.343 212.305L589.483 209.29L588.976 208.177L587.85 208.536L587.12 206.478L579.634 208.572L575.253 208.955L575.835 205.952L574.437 205.832L572.828 202.924L571.467 204.193L571.022 202.159L567.755 203.882L568.609 206.562L566.629 207.77L564.847 206.861L565.008 210.391L563.35 209.649L560.257 211.228L557.138 209.302L555.74 209.194L555.344 208.249L553.414 208.859L552.585 207.423L554.305 205.569L555.307 201.046L556.371 199.443L555.839 196.32L557.002 195.638L557.336 187.49L549.875 187.693L549.133 189.021L546.2 190.038L540.978 193.831L538.714 192.12L533.888 192.563L535.497 194.669L535.67 196.691L532.812 198.797L522.331 200.113L516.664 203.595L513.249 198.485L515.921 196.954L514.35 193.173L512.284 192.443L506.332 194.118L499.922 191.917L498.017 190.589L495.035 191.354L493.785 186.497L491.941 187.334L491.149 186.676L489.986 187.227L490.036 185.839L489.194 186.568L488.984 183.613L484.48 181.053L482.983 185.779L478.194 186.305L477.278 184.403L478.862 177.176L473.739 172.378L475.1 171.194L473.034 168.585L476.462 165.63L475.323 164.78L477.352 159.073L475.162 154.682L472.156 154.527L470.943 150.494L475.125 150.889L481.436 147.754L483.49 137.536L486.435 135.155L486.608 126.206Z" fill="#FFE7B6" stroke="#C39230" stroke-width="1.16612"></path>
                      <path class="map_oblast" id="nursultan__oblast" d="M568.72 195.143V196.61L569.844 197.56V198.165L572.353 200.669H574.343L575.813 201.273H577.889L581.263 202.137L585.761 202.482L586.54 203L588.356 202.137L589.135 200.669L591.211 198.855V198.165L587.578 195.315L587.145 194.106L588.356 192.12L592.768 189.616V189.012H596.055L597.093 189.616H597.699L598.045 190.135L599.17 189.616L600.121 190.394L601.419 189.875L601.938 190.394L603.322 190.135L608.426 190.394L608.858 189.875H609.723L610.069 189.271L610.675 190.394L611.367 189.875L611.626 189.012L612.318 189.271L613.183 187.976L614.135 189.271L615 187.976L611.367 186.94L612.318 184.004L609.723 182.45L606.436 182.795L603.581 175.629L600.121 173.988L599.343 170.62L603.581 166.131L601.073 161.727L598.045 165.267L597.699 166.131H597.093L596.661 167.08L589.654 164.317L592.249 161.209V160L589.654 160.691L589.221 161.727L587.145 163.195L586.194 162.331L583.426 163.627H582.82L580.657 164.835L579.879 163.195L577.457 163.627L576.765 163.195L572.872 168.635L571.228 167.426L570.709 167.944L568.979 167.08V168.635L567.336 168.289L566.903 169.239L568.114 169.843L567.336 172.347H567.595L567.336 173.038L568.72 175.197H570.19V176.06L571.488 177.01L569.671 177.701L568.72 177.442V179.6H567.595V180.982L566.903 181.5V183.918L566.125 185.472V186.594L565 187.026L565.692 188.839H566.125L567.595 193.416L568.72 194.106V195.143Z" fill="#FFE7B6" stroke="#C39230"></path>
                      <path class="map_oblast" id="aktobe__oblast" d="M317.719 353.933L311.965 356.266L309.713 360.107L308.649 364.965L307.597 365.479L306.743 367.753L262.247 381.046L258.795 356.434L256.629 350.631L254.65 346.886L255.095 345.474L252.262 341.932L251.965 337.505L232.958 331.475L225.745 324.452L224.247 318.828L220.659 314.449L223.468 294.994L221.834 292.302L221.302 285.829L217.553 281.773L218.419 278.59L216.167 271.531L216.959 265.979L217.665 265.441L217.553 259.83L213.235 259.471L213.222 257.987L211.416 256.719L210.624 258.011L209.052 257.616L208.533 262.737L198.733 261.194L199.698 258.824L198.671 256.563L199.364 254.529L197.693 246.333L196.431 246.046L195.342 248.75L193.87 248.044L194.229 247.099L191.308 245.819L189.403 244.12L189.18 240.805L190.764 235.577L189.923 233.71L191.42 234.428L192.397 232.011L194.253 230.396L196.604 230.408L197.038 228.673L202.061 228.972L204.425 227.62L203.868 226.627L206.046 223.313H208.706L207.295 221.65L209.609 217.713L210.599 214.543L210.29 212.724L207.456 210.726L207.815 205.126L206.008 202.697L208.57 200.065L208.162 199.024L211.193 195.53L210.822 195.016L212.01 195.339L214.744 191.989L212.987 185.552L214.212 182.477L217.046 182.872L218.333 184.523L219.508 183.171L221.018 183.027L221.476 181.579L222.503 181.089L223.728 182.046L222.725 184.738L223.592 185.791L229.778 191.055L232.909 190.649L233.404 191.773L237.883 194.418L238.885 192.91L244.627 190.134L248.463 187.382L248.5 184.606L249.824 181.065L253.796 181.902L254.736 179.701L256.629 179.473L256.394 176.231L257.199 175.346L260.552 178.971L262.829 179.629L263.311 178.397L262.754 175.705L265.229 175.573L266.961 176.626L268.261 175.824L269.82 176.686L273.68 175.082L274.559 176.997L276.267 177.966L277.677 181.184L281.513 183.087L281.76 181.603L283.753 180.682L284.978 180.694L285.633 181.866L286.648 181.436L287.378 173.814L288.913 173.455L290.212 174.819L291.511 174.245L291.956 175.106L293.318 175.525L295.421 173.946L295.817 175.681L297.624 176.087L298.601 174.783L298.428 173.718L300.296 172.665L301.113 172.989L302.202 175.705L305.419 175.633L306.854 176.351L307.782 178.217L306.879 180.766L307.659 184.953L308.958 185.348L311.99 184.654L312.175 186.999L313.833 187.765L315.095 189.632L322.52 190.457L324.017 191.474L324.586 191.008L326.652 191.486L328.756 191.067L330.278 193.09L329.696 193.819L330.043 196.368L337.281 193.819L341.39 184.87L342.949 183.53L345.658 184.295L345.955 186.305L348.888 189.847L352.724 190.697L361.175 191.02L365.494 190.098L375.553 186.138L376.494 184.702L379.389 169.519L381.406 168.861L383.002 169.614L384.772 168.861L385.848 167.042L387.531 169.555L388.929 175.776L390.884 176.518L392.802 174.341L396.366 176.41V177.846L395.562 177.978L394.757 180.67L399.088 184.75L396.366 186.581L396.836 190.84L400.202 189.823L402.404 200.663L405.584 205.557L406.067 207.423L411.301 214.985L411.771 216.852L410.608 220.8L406.797 217.773L402.961 221.063L402.615 224.892L398.816 227.13L399.596 231.257L400.375 232.334L397.542 231.389L395.5 233.961L401.142 242.528L400.35 243.115L399.88 242.66L396.279 243.222L395.661 244.885L398.779 244.61L400.499 250.365L407.205 256.778L412.402 254.039L414.902 256.192L415.05 257.532L413.454 259.59L414.37 262.593L422.215 265.166L423.613 266.685L427.535 268.121L431.433 270.753L436.618 280.325L441.023 287.779L443.213 288.725L437.88 294.408L409.519 313.576L407.713 314.138L406.661 312.678L399.744 311.637L400.783 309.316L394.151 301.156L391.144 301.599L385.056 291.967L370.443 295.222L362.165 316.627L352.105 315.825L351.412 323.195L344.037 323.782L334.349 332.48L317.719 353.933Z" fill="#FFE7B6" stroke="#C39230" stroke-width="1.16612"></path>
                      <path class="map_oblast" id="kostanai__oblast" d="M484.938 39.963L487.71 39.2332L489.454 44.4858L488.761 45.4429L491.496 52.7176L486.88 54.3089L491.422 57.0608L493.104 57.2164L494.416 60.5785L485.272 64.6226L487.784 72.4237L490.865 71.7776L490.914 78.0711L487.883 81.3375L488.935 84.3766L492.993 84.7954L493.241 95.1569L496.866 97.3465L496.26 99.9309L492.733 99.213L491.162 100.421L488.625 100.254L487.561 101.498L488.427 105.303L489.615 105.375L489.813 108.964L489.306 108.928L489.467 113.32L486.905 113.966L486.608 126.206L486.435 135.155L483.49 137.536L481.436 147.754L475.125 150.889L470.943 150.494L472.156 154.527L475.163 154.682L477.353 159.073L475.323 164.78L476.462 165.63L473.034 168.585L475.101 171.194L473.74 172.378L478.862 177.176L477.278 184.403L478.194 186.305L482.983 185.779L484.48 181.053L488.984 183.613L489.194 186.568L490.036 185.839L489.986 187.227L491.149 186.676L491.941 187.334L493.785 186.497L495.035 191.354L498.017 190.589L499.922 191.917L506.332 194.118L512.284 192.443L514.35 193.173L515.922 196.954L513.249 198.485L516.664 203.594L522.331 200.113L532.812 198.797L535.67 196.691L537.044 197.552L537.155 198.318L539.753 199.73L540.162 200.687L538.021 203.906L536.338 205.317L531.921 207.148L527.912 207.651L527.058 208.668L527.899 210.247L527.219 210.965L528.345 213.166L514.994 228.685L509.92 231.556L506.245 234.799L504.959 237.886L501.803 237.575L500.244 242.875L496.581 243.294L489.355 250.999L481.869 251.262L480.273 255.055L477.538 255.989L475.794 255.761L474.012 256.73L455.464 253.763L454.226 262.773L449.128 262.581L450.031 264.699L449.202 265.991L451.046 268.276L442.075 270.191L443.412 274.355L436.618 280.325L431.434 270.753L427.536 268.121L423.614 266.685L422.215 265.166L414.37 262.593L413.455 259.59L415.051 257.532L414.902 256.192L412.403 254.038L407.206 256.778L400.499 250.365L398.779 244.61L395.661 244.885L396.28 243.222L399.881 242.66L400.351 243.114L401.143 242.528L395.5 233.961L397.542 231.389L400.376 232.334L399.596 231.257L398.817 227.129L402.615 224.892L402.962 221.063L406.798 217.773L410.609 220.8L411.772 216.852L411.302 214.985L406.068 207.423L405.585 205.557L402.405 200.663L400.202 189.823L396.837 190.84L396.367 186.58L399.089 184.75L394.758 180.67L395.562 177.978L396.367 177.846V176.41L392.803 174.34L390.885 176.518L388.93 175.776L387.532 169.554L385.849 167.042L384.772 168.86L383.003 169.614L381.407 168.86L378.573 166.025L376.903 162.782L376.136 162.579L373.735 163.823L369.652 161.706L365.37 161.394L363.601 158.475L363.366 155.974L356.065 155.843L353.096 154.933L350.67 152.708L353.541 149.932L353.764 148.951L350.992 148.401L345.634 145.015L345.696 146.462L344.681 146.402L342.59 143.962L342.875 141.748L347.812 140.946L353.368 135.538L358.627 135.036L360.384 132.667L364.442 131.075L367.028 128.647L364.801 124.1L364.677 122.353L361.683 121.827L361.485 117.962L358.453 116.622L358.8 112.889L361.807 112.063L362.809 110.34L367.078 106.727L365.902 104.131L368.093 104.501L370.988 102.132L374.218 103.867L376.334 102.013L378.882 103.078L380.701 104.777L382.471 103.461L385.181 103.532L386.356 102.934L389.499 105.219L392.605 103.138L391.962 98.8541L387.532 98.3276L384.488 97.1551L381.32 93.6374L380.231 95.0014L377.732 95.1091L376.42 94.7262L374.787 93.0511L371.124 92.8118L369.689 91.9264L369.083 88.4207L370.951 86.4346L371.483 83.8741L374.366 84.2689L374.787 85.3099L375.975 85.6449L379.204 83.9937L379.427 83.0365L378.647 81.0863L377.373 80.4402L375.257 80.5359L373.834 81.6965L369.07 81.3136L367.783 80.141L363.279 79.459L363.353 77.4968L365.284 77.3891L366.274 78.5019L366.435 76.2644L367.956 75.5705L370.543 72.4117L370.27 71.0119L368.575 69.1094L365.061 68.4633L365.284 67.1233L366.187 66.2259L369.083 65.9387L369.788 67.4224L371.458 67.6737L371.953 65.2328L371.186 63.9047L371.458 63.0791L372.659 61.5237L374.774 60.9015L376.371 61.1049L377.2 63.6535L379.266 64.5987L380.021 66.2259L381.11 63.9526L383.015 63.2586L384.315 65.0414L385.812 63.139L385.725 64.0483L387.099 64.0962L386.294 65.7593L388.88 66.549L390.328 66.19L389.388 63.2945L391.071 62.2296L394.251 63.127L399.819 62.2536L401.056 63.3902L399.237 64.5987L399.918 66.9199L402.529 68.3676L403.568 65.0175L408.505 61.2246L408.901 59.8486L416.226 60.1717L417.204 59.4179L417.167 57.013L418.491 56.3908L423.205 56.7737L432.795 53.4115L436.383 53.5432L437.237 52.1193L438.066 53.2919L439.229 51.8561L441.766 52.2629L444.352 51.3416L447.755 51.4134L448.745 50.0614L450.019 50.3246L452.259 48.7572L455.154 48.3983L455.451 50.2528L460.388 47.7402L464.014 50.9707L466.674 50.8989L467.095 49.8699L465.882 46.5317L466.154 43.6243L469.916 41.3749L472.898 41.6979L472.119 39.9511L472.564 38.8623L476.511 39.0776L479.469 40.4656L480.607 39.4366L481.498 36.8641L484.035 36.0984L484.653 36.5889L484.195 39.3648L484.938 39.963Z" fill="#FFE7B6" stroke="#C39230" stroke-width="1.16612"></path>
                      <path class="map_oblast" id="mangistay__oblast" d="M115.458 392.615L116.522 392.555L114.851 394.266L114.839 391.299L115.458 392.615ZM117.264 388.487L118.304 387.626L118.935 388.416L118.897 390.378L119.986 390.916L117.771 391.144L118.304 390.414L117.648 390.174L117.932 389.181L116.101 387.961L116.683 387.147L116.41 387.769L117.264 388.487ZM102.23 384.647L103.604 385.293L102.341 385.46L101.747 386.226L102.156 388.99L102.997 389.229L102.7 390.127L103.294 390.952L104.73 391.646L106.214 391.227L105.818 392.388L102.812 391.335L101.871 389.887L101.067 387.267L102.23 384.647ZM108.664 384.168L109.63 384.324L109.976 386.693L107.563 390.761L107.353 387.59L106.388 385.424L108.664 384.168ZM164.309 369.391L165.2 369.212L165.856 370.911L166.178 373.471L165.299 373.699L165.41 374.129L164.334 373.818L162.292 370.827L163.678 369.595L163.307 368.781L164.309 369.391ZM168.454 360.837L177.203 362.32L177.97 360.466L181.682 360.944L187.918 358.479L191.915 355.596L189.391 354.16L194.86 350.224L196.159 347.819L195.825 346.335L199.537 346.778L200.02 346.012L206.986 344.469L210.624 344.385L215.227 342.65L224.73 341.693L227.39 342.052L233.058 336.62L235.965 340.604L237.525 341.537L239.294 340.365L240.47 340.52L241.299 342.925L241.311 345.833L244.33 347.041L245.555 346.227L246.619 346.682L247.25 348.549L249.799 349.29L251.457 348.465L252.583 349.482L254.464 349.35L256.617 350.595L258.795 356.398L262.235 381.009L245.209 386.417L245.271 503.23L242.078 503.111L240.667 504.475L239.628 503.888L237.302 504.307L235.866 505.635L234.889 504.295L234.159 505.348L232.439 504.547L226.97 498.803L222.961 491.182L220.127 487.724L220.238 484.948L217.318 481.442L201.789 471.488L196.134 471.655L187.312 473.019L174.022 477.829L159.83 489.435L161.018 484.996L159.285 479.576L159.644 477.135L162.874 472.457L165.546 464.692L164.68 462.143L162.515 459.499L162.973 458.829L163.158 460.037L165.336 462.191L166.079 464.141L166.994 462.693L166.908 459.403L164.829 458.566L164 458.901L163.839 456.962L160.523 456.017L157.615 456.137L156.105 457.501L154.781 455.407L153.569 454.809L150.945 454.916L147.085 456.173L143.62 449.963L140.848 447.426L140.725 445.045L131.63 445.967L132.744 437.603L132.014 434.073L130.294 431.334L128.908 430.867L125.74 425.423L124.837 420.709L121.917 417.993L122.102 415.863L120.989 412.477L117.19 410.204L110.879 409.426L107.674 407.667L106.845 406.112L106.462 400.081L107.439 401.35L108.615 398.047L112.08 398.717L115.334 398.406L116.212 399.088L118.712 399.292L120.58 398.31L122.783 399.124L123.946 400.715L125.146 400.847L125.134 402.067L127.287 403.503L129.848 403.551L131.902 401.397L133.981 400.871L134.08 401.828L135.008 402.45L135.825 401.709L137.904 401.984L137.842 401.194L135.491 399.878L131.556 400.153L131.902 398.909L131.172 399.208L131.222 398.095L129.205 394.889L124.738 391.873L124.132 392.555L122.164 392.113L121.966 389.851L124.231 387.028L126.507 386.728L129.304 384.348L131.024 384.838L131.147 380.16L132.731 377.025L134.959 374.716L136.122 375.29L138.968 374.991L141.764 373.376L142.816 371.832L147.716 373.591L150.253 372.969L155.784 373.112L159.706 372.155L162.886 372.646L164.581 374.584L166.017 374.333L168.417 375.099L166.784 374.046L167.217 373.591L166.264 371.473L166.475 370.277L170.174 371.868L172.34 373.806L170.211 370.899L168.937 370.839L166.957 369.415L167.848 368.075L170.459 367.668L169.939 366.197L167.341 368.087L167.13 366.819L166.388 366.723L167.823 364.881L169.989 365.742L167.464 363.074L168.541 362.44L168.058 361.842L170.013 361.423L168.454 360.837Z" fill="#FFE7B6" stroke="#C39230" stroke-width="1.16612"></path>
                      <path class="map_oblast" id="atiray__oblast" d="M96.8973 346.563L96.3405 346.623L95.3506 344.996L94.2493 341.334L95.9322 341.705L97.12 342.997L97.5284 344.481L96.8973 346.563ZM189.403 244.12L191.297 245.831L194.217 247.099L193.858 248.056L195.318 248.762L196.407 246.058L197.669 246.345L199.34 254.541L198.647 256.575L199.661 258.836L198.708 261.205L208.508 262.749L209.028 257.628L210.6 258.023L211.379 256.731L213.198 257.999V259.483L217.517 259.841L217.628 265.453L216.923 265.979L216.131 271.531L218.383 278.59L217.517 281.773L221.266 285.829L221.798 292.302L223.431 294.994L220.622 314.449L224.211 318.84L225.708 324.464L232.922 331.475L251.928 337.517L252.225 341.944L255.058 345.474L254.613 346.886L256.58 350.631L254.427 349.387L252.547 349.518L251.421 348.501L249.763 349.327L247.214 348.585L246.582 346.718L245.518 346.264L244.293 347.077L241.274 345.869L241.262 342.961L240.433 340.557L239.257 340.401L237.488 341.574L235.929 340.64L233.021 336.656L227.354 342.088L224.693 341.729L215.19 342.686L210.587 344.421L206.949 344.505L199.983 346.048L199.5 346.814L195.788 346.371L196.122 347.855L194.823 350.26L189.354 354.196L191.878 355.632L187.881 358.516L181.645 360.981L177.933 360.502L177.166 362.357L168.418 360.873L169.717 360.55L168.801 360.239L168.739 359.138L169.407 358.193L171.264 358.013L170.125 356.972L171.424 356.41L169.828 354.137L171.437 353.287L168.888 351.145L170.249 350.511L168.962 349.53L169.172 348.657L170.905 348.286L170.298 346.934L171.734 345.534L172.216 346.072L172.303 345.139L171.585 344.72L172.612 341.873L174.765 340.114L174.085 339.683L174.988 339.396L172.959 337.482L173.021 334.443L173.924 333.593L172.971 333.246L172.835 330.793L171.028 330.937L171.734 330.255L170.496 329.453L170.855 327.694L170.212 327.587L168.455 329.19L167.366 331.009L167.044 328.544L165.596 328.759L165.856 327.563L164.223 326.474L165.299 325.828L164.371 324.141L160.808 324.811L159.323 326.055L158.048 324.978L157.393 327.862L156.39 328.472L142.086 324.213L142.235 325.505L143.757 326.881L143.163 329.178L142.952 327.084L141.406 325.612L140.824 323.507L138.201 325.194L139.451 324.201L140.292 321.736L138.3 323.351L138.82 321.987L137.446 320.456L131.173 319.355L127.72 321.269L127.535 322.143L121.954 321.568L120.939 322.585L120.148 322.514L118.403 325.098L117.71 324.895L117.846 323.531H117.19L115.792 324.883L114.678 328.101L113.998 327.646L114.146 326.366L112.983 326.988L112.167 324.727L110.31 327.802L110.051 326.438L109.098 326.821L106.809 331.164L106.4 328.352L104.062 330.506L102.045 334.048L99.5329 334.012L98.5801 335.471L98.7039 336.608L97.3428 337.924L95.6476 337.075L95.7713 338.726L96.9344 339.635L95.7713 339.599L97.0458 341.274L94.3359 340.174L93.7049 341.167L92.6655 340.832L92.319 342.83L90.7723 341.071L92.0468 344.505L87.9263 341.956L87.4314 342.375L86.3549 340.042L87.3819 339.839L86.3178 338.092L84.5359 337.745L87.6418 343.476L86.5652 344.469L85.8228 343.919L84.6968 339.623L82.5561 337.876L81.4673 337.9L82.0241 339.049L83.014 339.073L83.6079 340.868L82.0241 339.707L82.4572 340.82L81.888 341.035L81.3064 338.75L80.267 338.463L81.8508 341.669L73.0036 337.517L71.8281 335.495L69.3534 334.61L68.5367 333.043L66.6188 333.067L66.2599 331.822L64.7503 331.403L65.4928 328.855L67.1632 327.479L68.9821 327.575L71.2465 330.386L72.4344 330.518L75.1566 330.207L77.3468 327.706L76.5178 325.409L71.9642 319.451L70.8135 316.878L68.6481 311.267L67.7943 305.703L62.3374 305.045L57.5736 296.657L54.4554 293.738L45.6948 294.348L39.0006 291.931L38.2458 296.705L33.915 294.217L31.9599 291.919L33.0735 291.189L29.6089 285.554L33.0117 283.46L33.8902 283.544L34.1624 282.85L31.5021 281.929L31.7372 278.543L29.5718 276.82L33.2097 277.992L36.0309 277.849L69.4771 281.988L76.1342 283.795L87.914 288.306L87.7284 284.716L95.2145 285.111L96.5261 284.082L100.572 284.178L105.448 279.344L118.663 270.765L120.172 270.73L122.424 268.66L123.414 269.138L125.629 267.822L126.966 263.766L131.94 263.431L134.798 262.163L144.969 263.862L145.613 265.13L144.784 265.692L144.598 268.564L152.307 270.263L153.161 268.803L154.212 268.66L159.496 271.555L162.082 271.495L163.777 270.502L163.233 268.779L164.903 261.923L167.811 261.804L167.44 253.249L169.568 254.158L171.004 250.928L172.489 251.622L180.841 251.634L184.565 250.497L183.934 249.073L189.403 244.12Z" fill="#FFE7B6" stroke="#C39230" stroke-width="1.16612"></path>
                      <path class="map_oblast" id="vko__oblast" d="M859.5 201.5L855.5 188L863 187L865.5 186H868.5L872.5 188.5L873.5 188L875.5 187L881.5 188L885.5 185L886 181H887L891.5 182L894.5 179.5L895 178L896.5 178.5L897 179.5L898.5 179L902.5 179.5L906.5 180.5L909 182.5L912 183L915.5 187L916 189.5L922.5 197L922 199L923 202.5L922.5 204.5L924.5 207.5H926.5L928 206.5L930 208L936.5 210.5L937 212H939L941 213.5L942 215L940.5 216V218.5L941.5 219.5L943.5 220L946 225.5L945.5 228.5L947.5 230L950.5 231.5L951.5 230.5L954 230L957 231.5L959 231L960.5 231.5H962L963.5 232L963 233.5L964.5 234L965.5 233H967.5L968.5 235L970 234.5L969.5 233L970.5 230.5L975 228.5L979.5 224.5V222.5H984L983.5 225V226L981.5 227H981L980 228.5V230.5L984 232V232.5L984.5 233.5V235L986.5 236.5V238.5L987.5 240L989 241L990 242L993.5 242.5L995.5 244L996.5 247.5L992 246L988 247.5H985.5L985 249.5L982.5 251V254.5L984.5 257.5L983 258.5V261L980.5 264.5L979 267L975 269L974.5 268.5H972.5L970 271L965 270.5L961 271.5L958.5 273.5L955.5 281V283.5L954 288.5L956 299.5L955.5 303L958 307.5L957.5 312.5L954.5 314L953.5 318.5H946.5L945.5 320L942.5 322.5L940.5 323.5L940 324.5L936.5 326.5L933.5 326L936 323.5L933.5 320L929 321L927 320L922 320.5L917.5 321.5L916 320.5L906.5 318.5L904 316L902.5 316.5L901 314.5L898.5 314L897 313L891.5 320L890 324.5L888 328.5L886 337.5L882 346.5L881 354.5L876.5 365L875.5 369L873 370L872 369L872.5 362L869 358L866.5 351L862.5 346.5L859.5 342.5L859 340.5L857.5 340L856.5 338.5L855 339.5L854 337L851.5 338L850 336L842 335.5L827 328.5V326L822 324L835 306.5L837 293L844.5 280.5L867 267.5L863 258L856 264L852.5 262L854 252L843.5 245.5V238.5L837 235V229L824.5 225V221L837 219.5L838.5 209L854 213.5L859.5 201.5Z" fill="#FFE7B6" stroke="#C39230"></path>
                      <path class="map_oblast" id="abay__oblast" d="M810.5 327.5L822 323.5L835 306.5L837 293L844.5 280.5L867 267.5L863 258L856 264L852.5 262L854 252L843.5 245.5V238.5L837 235V229L824.5 225V221L837 219.5L838.5 209L854 213.5L859.5 201.5L855.5 188V182L854 179H852.5L848.5 180.5H846L846.5 177L848.5 172.5L847.5 170.5L846 172L842.5 170V169L837 167.5L836 169V171H831.5V174L832.5 175.5V179.5H831L830 181H827L825.5 182V185L822.5 184.5L823 188.5L805.5 153H803.5L803 157L799 158L800 159.5L796.5 163L796 162L791 162.5V165L792.5 164.5V168L791 167.5L786.5 170.5L783.5 171.5L783 170.5L781.5 171L781 172.5L778 173.5L777.5 173L775.5 175L778.5 179L779 182.5L781 183.5L784 186.5L790.5 190.5L790 198.5L792 199L793 204L791 206L787 213L783.5 214.5L779.5 213.5L769.5 209L768 207L766.5 207.5L766 210L762.5 212.5L760.5 215L756 217.5H754L753 220L754 221L753.5 223.5L754 225L751.5 230.5L739.5 235L739 237L741 239.5V240.5L743 241L746.5 244V246L751 250L748.5 251L748 250L746 251L745.5 254.5L747.5 258L757.5 256.5L758.5 259.5L757.5 264.5L753 269L750 268.5L748.5 269.5L749 271.5L747 272L748 273.5L750 274.5V276L755 276.5L754.5 277.5H752.5L752 279.5L755 282H757.5L759 283.5L754.5 285L756 287H754.5L754 290H753L750 297.5L751.5 299.5L753 306.5L750.5 305.5L748.5 306V308.5L747.5 311L745.5 311.5L748 312.5L749 314.5L752 316.5L755 317.5L756 314.5L758 313.5L760.5 315L763 314L763.5 313L769.5 314L773 310.5L776.5 313.5L780 309L788 315L791.5 315.5L792.5 318.5L803 317L810.5 327.5Z" fill="#FFE7B6" stroke="#C39230"></path>
                      <path class="map_oblast" id="almaty__oblast" d="M732.5 332.5H735V332.574V367L744.5 377.5L743 381L746.5 384.5L754 382.5L759 387.209V401.5L765.5 409L770.5 407.5L767.5 417H777.5L776.5 426H786L803.5 427.5L810.5 423L818 429L835.5 427.5L838.5 436L836.5 441L838.5 441.5L840 445L839.5 446L835 446.5L830 449.5L830.5 451.5L832 452.5L834 453L834.5 454L832.5 454.5L830 456H827L826 460L824.5 462L825.5 465L827.5 466L825.5 468L826 471L827 472V473L827.5 474L827 475L826.5 475.5L825.5 475L823.5 475.5V473.5L822.5 472L820.5 470.5L819.5 468.5H818L817 469L816.5 468L812.5 467L811 468L809 467.5L805.5 463.5L802 461.5L801 460L801.5 457.5H799L798.5 459L797 457.5H795L790.5 456L789 456.5L788.5 455.5L786 455L784.5 453.5L782.5 454.5L781.5 454L780.5 455.5L777 454.5L776.5 455H775L774 456L773 454.5L772 456L771 454.5H768L767.5 453.5L759.5 452.5L755 453.5L753 452L747.5 451H745L743 452L742 453.5L737 453L736 454.5L733 455L731.5 453L725.5 453.5L723 452L720.5 453L720 451.5L718.5 452.5L717.5 451.5L715 452L714.5 451L716 450.5L716.5 449.5L710 447L709.5 444.5H708L709 443L707.5 442.5L708 439.5L711.5 436L710.5 434.5L707 435L707.5 433.5L704.5 434L701 432.5V431L707.5 424.5L707 422L709 419.5L708.5 415.5L706 413.5L705 411.5H703L700.5 409.5L695 409L689.5 404L691 400L688.5 395.5L681 391L679.5 388V383.5H672.5L672 377.5L679.5 378.5L678 375L677 362.5L683.5 352L697.5 338L711.5 330L717.5 331.5L724 330L732.5 331.5V332.5Z" fill="#FFE7B6" stroke="#C39230"></path>
                      <path class="map_oblast" id="almaty_city__oblast" d="M735.276 439.5L735.58 440L735.986 439.9L735.884 440.65L737.203 440.25L737.71 441.85V442.3L738.014 442.85L739.841 442.15L739.587 441.6L739.689 441.35H739.891V440.65L740.601 440V440.25H741.159L740.906 440.9L741.362 440.4V440.15H741.718L741.971 440.35V440.65H742.428L742.529 440.35L742.174 440.15L742.276 439.85L742.377 439.4L742.732 438.9H742.986L743.645 438.55H743.899L744.355 438.8H744.659L745.014 439.1H745.319L745.623 439.4L746.08 439.1L747.196 440L747.043 440.15V440.4L746.486 441L746.181 440.5L745.978 440.9H745.623L746.08 441.85L746.638 442.1L746.486 442.3V442.7L746.992 443V443.6L747.449 445L747.753 444.7H748.109L748.261 444.35L747.601 444.2L747.196 443.05V442.4L746.992 441.85L747.297 441.45L747.753 443.15L747.804 442.5L747.906 442.4L747.601 441.85L747.804 441.45L748.21 441.85L748.261 441.65L748.21 440.9L748.768 441L748.971 441.25L749.123 441.15L749.276 440.7L749.529 441.15L749.732 441.05L751.051 442.85H751.71L752.167 443.15L754.145 443.25V442.85L753.689 442.2L751.406 441.25L751.609 441.2L751.862 441.15H752.319L752.37 441.4L753.232 441.15L753.841 441.6V440.5C753.232 440.633 752.004 440.9 751.963 440.9H751.71L751.558 441.05H751.051L750.797 440.9V440.35L750.645 440.25L750.087 440.15L749.884 439.85L749.732 439.9L749.276 440L749.428 439.1L749.224 438.7V438.4L748.514 437.15L748.87 436.55L748.819 436.1C748.7 435.983 748.463 435.74 748.463 435.7V435.25L748.311 435L748.261 433.95L748.819 433.25L748.667 432.7L748.819 432.1L749.224 431.95L749.428 432.1L749.276 432.5L749.833 433.75L749.732 433.9H749.428L749.732 434.15L749.833 434.4L749.986 434.55L751.051 434.7L751.457 434.55V434.65L751.558 434.95L751.862 434.8L751.71 434.65V434.4L753.029 433.6V433.25L751.963 431.85L750.899 431.45L751.051 431.2V430.85L751.862 431.1L751.811 430.65V429.7L751.558 429.1L751.862 428.95V428.65L751.051 428.95L750.899 428.85V428.05L749.63 428.4C749.58 428.366 749.468 428.29 749.428 428.25C749.387 428.21 749.275 428.167 749.224 428.15L749.072 428.05L748.819 427.85V427.55L748.971 427.3L749.224 427.35L749.428 427.85L750.037 427.2L749.884 427.05L749.478 426.95L747.957 427.45L748.514 425.95L748.311 425.4L748.514 425.1L748.413 424.8V424.5L748.819 423.9L748.971 423.7L749.935 422.6L750.442 422.55L750.696 422.3V421.35L750.949 421.15L751.457 421.6L752.014 421.25H752.319L752.623 420.85L754.5 419.7L755.92 418.6L756.478 418.7L758 417.15L757.848 416.95L757.594 417.1L757.087 416.8L754.957 418.2L752.623 418.4L750.848 419.05L750.594 418.7L750.747 418.4L750.594 418.35L750.696 418.2L750.747 417.9L750.848 417.55L750.594 417.25V416.95L750.696 416.65C750.662 416.5 750.614 416.16 750.696 416C750.899 415.8 750.78 415.583 750.696 415.5L750.848 414.9L751.253 414.45L750.696 414.35V414.1L750.492 414.05L750.442 413.65L750.037 413.4H749.63L749.174 413L748.92 413.15L748.616 413.9V414.05L748.565 414.75H748.311L748.058 415.05H747.906H747.753L747.703 415.35L747.551 415.5L747.449 415.4L747.297 415.5L747.196 415.8L746.992 415.9L746.891 416.35L746.282 416.85L745.978 417.35L746.08 417.75L745.522 418.5L745.167 418.6L745.116 418.7C745.032 418.733 744.811 418.78 744.609 418.7C744.406 418.62 744.321 418.434 744.304 418.35H743.645L743.492 418.1H743.087L742.681 418.2L742.58 418.4L742.428 418.6L742.326 418.95L742.123 419.05L741.667 419.7H741.463L741.362 420.5L740.804 420.85H740.5L740.196 421.15L740.094 421.35L739.891 421.75L740.043 422.25L739.435 422L738.776 422.85L738.319 422.65L738.471 422L738.572 421.15V420.75L738.319 420.7L738.268 420.5L738.014 420.4L737.406 420.3L737.101 421.75L736.899 421.8L736.594 422.25C736.561 422.217 736.492 422.14 736.492 422.1C736.492 422.06 736.357 422.05 736.29 422.05L735.986 421.8V421.45L736.29 421L736.492 420.75H736.189H735.884L735.732 421.1L735.63 421.9L734.87 422.1L733.551 422.05L732.537 422.7L731.014 422.65L730.558 424.35L730.508 425.95H730.913L731.014 426.3L731.319 426.5L731.42 428L730.811 428.1V429.1L731.065 428.95L731.268 429.25L731.065 429.55L731.37 432.2L731.268 432.8L731.572 434.35H732.232V434.55L731.877 434.7L730.811 435.45H730L731.065 437.35V437.75L731.268 437.9V438.45L731.37 438.85H731.724L732.232 438.3L733.348 440.25L734.362 439.5L734.768 440L735.276 439.5Z" fill="#FFE7B6" stroke="#C39230" stroke-linecap="round" stroke-linejoin="round"></path>
                      <path class="map_oblast" id="jetisu__oblast" d="M735 366.5V330L751 331L753.5 332L754 334H756V331.5L763.5 331L762 313L763 312L769 314L772.5 310L775.5 313L779.5 308L787.5 314.5L790.5 315L791.5 318L802.5 316.5L810 327L821.5 323L826.5 325V327.5L841.5 335H849L850.5 337L853 336L854.5 338.5L855.5 337H856.5L855.5 338.5L858 339L859 338V339L857.5 340H859L858 341L866 350L868 357L872 361L871.5 368L872.5 368.5L875 368L878.5 370.5L882.5 371.5L883.5 374L882.5 378.5L880 382L875.5 378.5H874L867 381L865.5 379H864L863 375.5L860.5 374L859 374.5L856 377H854.5L854 376.5L853 377.5L852 377L851.5 378H849.5L848.5 379L846.5 378.5L846 380L843 380.5L841.5 381.5L838 380L837 381.5L834.5 382.5L831.5 382L829.5 384.5L827.5 384L825.5 385L822 384.5V385.5H821.5L816.5 389.5L819 390L820 392L821 392.5L826.5 391L827 392H828.5L829 392.5L832 395V416.5L835 427L818 428.5L810.5 422.5L803.5 427L786.5 425.5H776.5L777.5 416.5H767.5L770.5 407L765.5 408.5L759 401V386.5L754 382L746.5 384L743 380.5L744.5 377L735 366.5Z" fill="#FFE7B6" stroke="#C39230"></path>
                      <path class="map_oblast" id="ylitay__oblast" d="M534 246L523 220L515.5 229L510 232L506.5 235.5L505 238.5L502 238L500.5 243.5L496.5 244L489.5 251.5L482 252L480.5 255.5L477.5 256.5H476L474 257.5L455.5 254.5L454 263.5L449.5 263L450 265.5L449 266.5L451 268.5L442.5 270.5L443.5 275L436.5 281L441 288.5L443 289.5L438.5 294.5L403 319L412.5 317.5L419 322.5L422.5 322L429.5 326L432 324.5L433 325.5L445 330L448 330.5L460 337H464.5L468.5 341.5L501.5 352.5H515L516.5 356H611.5V315L619.5 320L625 313V302L619.5 298L627.5 290V280.5L632.5 278V270.5L627.5 266V258.5H619.5V255L604 258.5L597.5 246H592V270.5H584L573 280.5L566.5 274.5H558L543.5 258.5H529.5L534 246Z" fill="#FFE7B6" stroke="#C39230"></path>
                      <path class="map_oblast" id="karaganda__oblast" d="M534 246L523 220L528.5 213.5L527 211L528.5 210.5L527 209L528 207.5H532.5L536.5 205.5L538 204L540.5 201L540 200L537 198.5V197.5L535.5 197V195L534 192.5L538.5 192L541 194L546 190.5L549 189L549.5 187.5H557.5L557 195.5L556 196.5L556.5 199.5L555.5 201L554.5 205.5L552.5 207L553.5 209L555.5 208.5V209.5H557.5L560 211.5L563 209.5L565 210.5L564.5 207L567 208L568.5 206.5L567.5 203.5L571 202L571.5 204.5L573 203L574.5 206H576L575 209L579.5 208.5L587 206L587.5 208.5H589L589.5 209.5L587 212.5V215L588.5 216L593.5 213L596.5 212.5L597.5 211L596 207L601 205L603 208.5L603.5 200.5L607 199.5L610.5 197L609.5 196L611.5 194.5L613.5 195L614.5 193.5H616.5L617 190L620 188.5V187.5H621.5L622 188.5L623.5 188V189H625.5L628.5 191L626.5 193L628 194.5L627 195.5L627.5 197.5L625 200.5L626.5 201L627.5 199.5L632 199L635 201.5V200H636.5L636 196.5L637.5 196L638.5 194.5L641.5 196L643.5 195L641 193.5L642.5 192L642 191L643 190L644 190.5V189H647.5L649.5 187L648.5 185.5H650L651 183L655 185L656 183L659.5 182.5L658.5 180.5L665 178.5L668.5 175L664.5 173L663 176.5L662 175.5L662.5 174.5L661 171.5L659.5 171L660 169.5L661.5 168.5L662 170L663.5 169.5V168.5L664.5 168L665 170.5L666.5 168L679 172V174.5L680 176.5L678.5 182V186H677L676.5 187.5L677.5 189L676 190.5L679.5 194.5L686 193.5L688.5 191.5V193L693 193.5L694 195L692.5 196L694 200.5L696 196L699 199.5H700.5L702.5 202.5L701.5 203L702 204.5L705 205.5L706 207L704.5 207.5L705 208.5L700 209.5V210.5L698.5 211.5L699.5 214.5H701L701.5 215.5L704 214.5L709 211L710 209.5L717 210L718.5 208L719.5 207.5L720.5 209L729 206.5L732 208.5L733 208L734 205L735 205.5L736.5 204.5L739.5 204L742 206L743 204.5L742.5 200.5L744.5 194.5L746.5 192.5L751.5 191.5L756 196H761L764.5 198.5L766.5 203L764 206L767 207.5L766.5 210L763 212.5L761 215L756.5 217.5H754.5L753.5 220L754.5 221.5L754 223.5L754.5 225L752 230.5L740 235L739.5 237L741.5 239.5V240.5L743.5 241.5L747 244V246.5L751.5 249.5L749 250.5L748.5 250L746.5 251L746 254.5L748 258L758 256L759 259L758 264.5L753.5 269L750.5 268.5L749 269.5L749.5 271.5L747.5 272L748.5 273.5L750.5 274.5L755 277.5H753L752.5 279.5L755.5 282H758L760 283.5L755 285L756.5 287H755V289.5L753.5 290L751 297.5L752 299.5L753.5 306.5L751 305.5L749 306V308.5L748 311L746 311.5L748.5 312.5L749.5 314.5L752 316.5L755.5 317.5L756.5 314.5L758 313.5L761 315L763.5 314L764.5 331.5L757.5 332.5V334.5L755.5 335L754.5 332.5L752.5 331.5L750 332L747.5 330.5L745.5 331L748 333.5L741 331L740 332.5L738 332L737 333L736.5 331L735 333L733.5 332.5V331.5L725 329.5L718.5 331.5L712 330L698 338.5L684 351.5L682 355.5L611.5 356V315L619.5 320L625 313V302L619.5 298L627.5 290V280.5L632.5 278V270.5L627.5 266V258.5H619.5V255L604 258.5L597.5 246H592V270.5H584L573 280.5L566.5 274.5H558L543.5 258.5H529.5C529.1 258.5 532.333 250.167 534 246Z" fill="#FFE7B6" stroke="#C39230"></path>
                    </svg>